# Blender v2.79 (sub 0) OBJ File: 'actuator.blend'
# www.blender.org
mtllib actuator.mtl
o Cylinder_Cylinder.002
v 0.000001 0.000000 -10.000004
v 0.000001 100.000000 -10.000004
v 1.950904 0.000000 -9.807857
v 1.950904 100.000000 -9.807857
v 3.826836 0.000000 -9.238799
v 3.826836 100.000000 -9.238799
v 5.555704 0.000000 -8.314700
v 5.555704 100.000000 -8.314700
v 7.071069 0.000000 -7.071071
v 7.071069 100.000000 -7.071071
v 8.314697 0.000000 -5.555705
v 8.314697 100.000000 -5.555705
v 9.238796 0.000000 -3.826838
v 9.238796 100.000000 -3.826838
v 9.807854 0.000000 -1.950907
v 9.807854 100.000000 -1.950907
v 10.000001 0.000000 -0.000004
v 10.000001 100.000000 -0.000004
v 9.807854 0.000000 1.950899
v 9.807854 100.000000 1.950899
v 9.238796 0.000000 3.826829
v 9.238796 100.000000 3.826829
v 8.314697 0.000000 5.555698
v 8.314697 100.000000 5.555698
v 7.071069 0.000000 7.071064
v 7.071069 100.000000 7.071064
v 5.555703 0.000000 8.314692
v 5.555703 100.000000 8.314692
v 3.826834 0.000000 9.238792
v 3.826834 100.000000 9.238792
v 1.950902 0.000000 9.807849
v 1.950902 100.000000 9.807849
v -0.000002 0.000000 9.999996
v -0.000002 100.000000 9.999996
v -1.950906 0.000000 9.807848
v -1.950906 100.000000 9.807848
v -3.826838 0.000000 9.238790
v -3.826838 100.000000 9.238790
v -5.555706 0.000000 8.314690
v -5.555706 100.000000 8.314690
v -7.071071 0.000000 7.071060
v -7.071071 100.000000 7.071060
v -8.314699 0.000000 5.555693
v -8.314699 100.000000 5.555693
v -9.238797 0.000000 3.826823
v -9.238797 100.000000 3.826823
v -9.807854 0.000000 1.950891
v -9.807854 100.000000 1.950891
v -9.999999 0.000000 -0.000013
v -9.999999 100.000000 -0.000013
v -9.807850 0.000000 -1.950917
v -9.807850 100.000000 -1.950917
v -9.238790 0.000000 -3.826848
v -9.238790 100.000000 -3.826848
v -8.314689 0.000000 -5.555716
v -8.314689 100.000000 -5.555716
v -7.071057 0.000000 -7.071080
v -7.071057 100.000000 -7.071080
v -5.555690 0.000000 -8.314708
v -5.555690 100.000000 -8.314708
v -3.826820 0.000000 -9.238805
v -3.826820 100.000000 -9.238805
v -1.950887 0.000000 -9.807859
v -1.950887 100.000000 -9.807859
v 0.000001 9.090909 -10.000004
v 0.000001 18.181818 -10.000004
v 0.000001 27.272728 -10.000004
v 0.000001 36.363636 -10.000004
v 0.000001 45.454544 -10.000004
v 0.000001 54.545456 -10.000004
v 0.000001 63.636364 -10.000004
v 0.000001 72.727272 -10.000004
v 0.000001 81.818184 -10.000004
v 0.000001 90.909088 -10.000004
v 1.950904 90.909088 -9.807857
v 1.950904 81.818176 -9.807857
v 1.950904 72.727264 -9.807857
v 1.950904 63.636356 -9.807857
v 1.950904 54.545448 -9.807857
v 1.950904 45.454540 -9.807857
v 1.950904 36.363632 -9.807857
v 1.950904 27.272724 -9.807857
v 1.950904 18.181816 -9.807857
v 1.950904 9.090908 -9.807857
v 3.826836 90.909088 -9.238799
v 3.826836 81.818176 -9.238799
v 3.826836 72.727264 -9.238799
v 3.826836 63.636356 -9.238799
v 3.826836 54.545448 -9.238799
v 3.826836 45.454540 -9.238799
v 3.826836 36.363632 -9.238799
v 3.826836 27.272724 -9.238799
v 3.826836 18.181816 -9.238799
v 3.826836 9.090908 -9.238799
v 5.555704 90.909088 -8.314700
v 5.555704 81.818176 -8.314700
v 5.555704 72.727264 -8.314700
v 5.555704 63.636356 -8.314700
v 5.555704 54.545448 -8.314700
v 5.555704 45.454540 -8.314700
v 5.555704 36.363632 -8.314700
v 5.555704 27.272724 -8.314700
v 5.555704 18.181816 -8.314700
v 5.555704 9.090908 -8.314700
v 7.071069 90.909088 -7.071071
v 7.071069 81.818176 -7.071071
v 7.071069 72.727264 -7.071071
v 7.071069 63.636356 -7.071071
v 7.071069 54.545448 -7.071071
v 7.071069 45.454540 -7.071071
v 7.071069 36.363632 -7.071071
v 7.071069 27.272724 -7.071071
v 7.071069 18.181816 -7.071071
v 7.071069 9.090908 -7.071071
v 8.314697 90.909088 -5.555705
v 8.314697 81.818176 -5.555705
v 8.314697 72.727264 -5.555705
v 8.314697 63.636356 -5.555705
v 8.314697 54.545448 -5.555705
v 8.314697 45.454540 -5.555705
v 8.314697 36.363632 -5.555705
v 8.314697 27.272724 -5.555705
v 8.314697 18.181816 -5.555705
v 8.314697 9.090908 -5.555705
v 9.238796 90.909088 -3.826838
v 9.238796 81.818176 -3.826838
v 9.238796 72.727264 -3.826838
v 9.238796 63.636356 -3.826838
v 9.238796 54.545448 -3.826838
v 9.238796 45.454540 -3.826838
v 9.238796 36.363632 -3.826838
v 9.238796 27.272724 -3.826838
v 9.238796 18.181816 -3.826838
v 9.238796 9.090908 -3.826838
v 9.807854 90.909088 -1.950907
v 9.807854 81.818176 -1.950907
v 9.807854 72.727264 -1.950907
v 9.807854 63.636356 -1.950907
v 9.807854 54.545448 -1.950907
v 9.807854 45.454540 -1.950907
v 9.807854 36.363632 -1.950907
v 9.807854 27.272724 -1.950907
v 9.807854 18.181816 -1.950907
v 9.807854 9.090908 -1.950907
v 10.000001 90.909088 -0.000004
v 10.000001 81.818176 -0.000004
v 10.000001 72.727264 -0.000004
v 10.000001 63.636356 -0.000004
v 10.000001 54.545448 -0.000004
v 10.000001 45.454540 -0.000004
v 10.000001 36.363632 -0.000004
v 10.000001 27.272724 -0.000004
v 10.000001 18.181816 -0.000004
v 10.000001 9.090908 -0.000004
v 9.807854 90.909088 1.950899
v 9.807854 81.818176 1.950899
v 9.807854 72.727264 1.950899
v 9.807854 63.636356 1.950899
v 9.807854 54.545448 1.950899
v 9.807854 45.454540 1.950899
v 9.807854 36.363632 1.950899
v 9.807854 27.272724 1.950899
v 9.807854 18.181816 1.950899
v 9.807854 9.090908 1.950899
v 9.238796 90.909088 3.826829
v 9.238796 81.818176 3.826829
v 9.238796 72.727264 3.826829
v 9.238796 63.636356 3.826829
v 9.238796 54.545448 3.826829
v 9.238796 45.454540 3.826829
v 9.238796 36.363632 3.826829
v 9.238796 27.272724 3.826829
v 9.238796 18.181816 3.826829
v 9.238796 9.090908 3.826829
v 8.314697 90.909088 5.555698
v 8.314697 81.818176 5.555698
v 8.314697 72.727264 5.555698
v 8.314697 63.636356 5.555698
v 8.314697 54.545448 5.555698
v 8.314697 45.454540 5.555698
v 8.314697 36.363632 5.555698
v 8.314697 27.272724 5.555698
v 8.314697 18.181816 5.555698
v 8.314697 9.090908 5.555698
v 7.071069 90.909088 7.071064
v 7.071069 81.818176 7.071064
v 7.071069 72.727264 7.071064
v 7.071069 63.636356 7.071064
v 7.071069 54.545448 7.071064
v 7.071069 45.454540 7.071064
v 7.071069 36.363632 7.071064
v 7.071069 27.272724 7.071064
v 7.071069 18.181816 7.071064
v 7.071069 9.090908 7.071064
v 5.555703 90.909088 8.314692
v 5.555703 81.818176 8.314692
v 5.555703 72.727264 8.314692
v 5.555703 63.636356 8.314692
v 5.555703 54.545448 8.314692
v 5.555703 45.454540 8.314692
v 5.555703 36.363632 8.314692
v 5.555703 27.272724 8.314692
v 5.555703 18.181816 8.314692
v 5.555703 9.090908 8.314692
v 3.826834 90.909088 9.238792
v 3.826834 81.818176 9.238792
v 3.826834 72.727264 9.238792
v 3.826834 63.636356 9.238792
v 3.826834 54.545448 9.238792
v 3.826834 45.454540 9.238792
v 3.826834 36.363632 9.238792
v 3.826834 27.272724 9.238792
v 3.826834 18.181816 9.238792
v 3.826834 9.090908 9.238792
v 1.950902 90.909088 9.807849
v 1.950902 81.818176 9.807849
v 1.950902 72.727264 9.807849
v 1.950902 63.636356 9.807849
v 1.950902 54.545448 9.807849
v 1.950902 45.454540 9.807849
v 1.950902 36.363632 9.807849
v 1.950902 27.272724 9.807849
v 1.950902 18.181816 9.807849
v 1.950902 9.090908 9.807849
v -0.000002 90.909088 9.999996
v -0.000002 81.818176 9.999996
v -0.000002 72.727264 9.999996
v -0.000002 63.636356 9.999996
v -0.000002 54.545448 9.999996
v -0.000002 45.454540 9.999996
v -0.000002 36.363632 9.999996
v -0.000002 27.272724 9.999996
v -0.000002 18.181816 9.999996
v -0.000002 9.090908 9.999996
v -1.950906 90.909088 9.807848
v -1.950906 81.818176 9.807848
v -1.950906 72.727264 9.807848
v -1.950906 63.636356 9.807848
v -1.950906 54.545448 9.807848
v -1.950906 45.454540 9.807848
v -1.950906 36.363632 9.807848
v -1.950906 27.272724 9.807848
v -1.950906 18.181816 9.807848
v -1.950906 9.090908 9.807848
v -3.826838 90.909088 9.238790
v -3.826838 81.818176 9.238790
v -3.826838 72.727264 9.238790
v -3.826838 63.636356 9.238790
v -3.826838 54.545448 9.238790
v -3.826838 45.454540 9.238790
v -3.826838 36.363632 9.238790
v -3.826838 27.272724 9.238790
v -3.826838 18.181816 9.238790
v -3.826838 9.090908 9.238790
v -5.555706 90.909088 8.314690
v -5.555706 81.818176 8.314690
v -5.555706 72.727264 8.314690
v -5.555706 63.636356 8.314690
v -5.555706 54.545448 8.314690
v -5.555706 45.454540 8.314690
v -5.555706 36.363632 8.314690
v -5.555706 27.272724 8.314690
v -5.555706 18.181816 8.314690
v -5.555706 9.090908 8.314690
v -7.071071 90.909088 7.071060
v -7.071071 81.818176 7.071060
v -7.071071 72.727264 7.071060
v -7.071071 63.636356 7.071060
v -7.071071 54.545448 7.071060
v -7.071071 45.454540 7.071060
v -7.071071 36.363632 7.071060
v -7.071071 27.272724 7.071060
v -7.071071 18.181816 7.071060
v -7.071071 9.090908 7.071060
v -8.314699 90.909088 5.555693
v -8.314699 81.818176 5.555693
v -8.314699 72.727264 5.555693
v -8.314699 63.636356 5.555693
v -8.314699 54.545448 5.555693
v -8.314699 45.454540 5.555693
v -8.314699 36.363632 5.555693
v -8.314699 27.272724 5.555693
v -8.314699 18.181816 5.555693
v -8.314699 9.090908 5.555693
v -9.238797 90.909088 3.826823
v -9.238797 81.818176 3.826823
v -9.238797 72.727264 3.826823
v -9.238797 63.636356 3.826823
v -9.238797 54.545448 3.826823
v -9.238797 45.454540 3.826823
v -9.238797 36.363632 3.826823
v -9.238797 27.272724 3.826823
v -9.238797 18.181816 3.826823
v -9.238797 9.090908 3.826823
v -9.807854 90.909088 1.950891
v -9.807854 81.818176 1.950891
v -9.807854 72.727264 1.950891
v -9.807854 63.636356 1.950891
v -9.807854 54.545448 1.950891
v -9.807854 45.454540 1.950891
v -9.807854 36.363632 1.950891
v -9.807854 27.272724 1.950891
v -9.807854 18.181816 1.950891
v -9.807854 9.090908 1.950891
v -9.999999 90.909088 -0.000013
v -9.999999 81.818176 -0.000013
v -9.999999 72.727264 -0.000013
v -9.999999 63.636356 -0.000013
v -9.999999 54.545448 -0.000013
v -9.999999 45.454540 -0.000013
v -9.999999 36.363632 -0.000013
v -9.999999 27.272724 -0.000013
v -9.999999 18.181816 -0.000013
v -9.999999 9.090908 -0.000013
v -9.807850 90.909088 -1.950917
v -9.807850 81.818176 -1.950917
v -9.807850 72.727264 -1.950917
v -9.807850 63.636356 -1.950917
v -9.807850 54.545448 -1.950917
v -9.807850 45.454540 -1.950917
v -9.807850 36.363632 -1.950917
v -9.807850 27.272724 -1.950917
v -9.807850 18.181816 -1.950917
v -9.807850 9.090908 -1.950917
v -9.238790 90.909088 -3.826848
v -9.238790 81.818176 -3.826848
v -9.238790 72.727264 -3.826848
v -9.238790 63.636356 -3.826848
v -9.238790 54.545448 -3.826848
v -9.238790 45.454540 -3.826848
v -9.238790 36.363632 -3.826848
v -9.238790 27.272724 -3.826848
v -9.238790 18.181816 -3.826848
v -9.238790 9.090908 -3.826848
v -8.314689 90.909088 -5.555716
v -8.314689 81.818176 -5.555716
v -8.314689 72.727264 -5.555716
v -8.314689 63.636356 -5.555716
v -8.314689 54.545448 -5.555716
v -8.314689 45.454540 -5.555716
v -8.314689 36.363632 -5.555716
v -8.314689 27.272724 -5.555716
v -8.314689 18.181816 -5.555716
v -8.314689 9.090908 -5.555716
v -7.071057 90.909088 -7.071080
v -7.071057 81.818176 -7.071080
v -7.071057 72.727264 -7.071080
v -7.071057 63.636356 -7.071080
v -7.071057 54.545448 -7.071080
v -7.071057 45.454540 -7.071080
v -7.071057 36.363632 -7.071080
v -7.071057 27.272724 -7.071080
v -7.071057 18.181816 -7.071080
v -7.071057 9.090908 -7.071080
v -5.555690 90.909088 -8.314708
v -5.555690 81.818176 -8.314708
v -5.555690 72.727264 -8.314708
v -5.555690 63.636356 -8.314708
v -5.555690 54.545448 -8.314708
v -5.555690 45.454540 -8.314708
v -5.555690 36.363632 -8.314708
v -5.555690 27.272724 -8.314708
v -5.555690 18.181816 -8.314708
v -5.555690 9.090908 -8.314708
v -3.826820 90.909088 -9.238805
v -3.826820 81.818176 -9.238805
v -3.826820 72.727264 -9.238805
v -3.826820 63.636356 -9.238805
v -3.826820 54.545448 -9.238805
v -3.826820 45.454540 -9.238805
v -3.826820 36.363632 -9.238805
v -3.826820 27.272724 -9.238805
v -3.826820 18.181816 -9.238805
v -3.826820 9.090908 -9.238805
v -1.950887 90.909088 -9.807859
v -1.950887 81.818176 -9.807859
v -1.950887 72.727264 -9.807859
v -1.950887 63.636356 -9.807859
v -1.950887 54.545448 -9.807859
v -1.950887 45.454540 -9.807859
v -1.950887 36.363632 -9.807859
v -1.950887 27.272724 -9.807859
v -1.950887 18.181816 -9.807859
v -1.950887 9.090908 -9.807859
vn 0.0980 0.0000 -0.9952
vn 0.2903 0.0000 -0.9569
vn 0.4714 0.0000 -0.8819
vn 0.6344 0.0000 -0.7730
vn 0.7730 0.0000 -0.6344
vn 0.8819 0.0000 -0.4714
vn 0.9569 0.0000 -0.2903
vn 0.9952 0.0000 -0.0980
vn 0.9952 0.0000 0.0980
vn 0.9569 0.0000 0.2903
vn 0.8819 0.0000 0.4714
vn 0.7730 0.0000 0.6344
vn 0.6344 0.0000 0.7730
vn 0.4714 0.0000 0.8819
vn 0.2903 0.0000 0.9569
vn 0.0980 0.0000 0.9952
vn -0.0980 0.0000 0.9952
vn -0.2903 0.0000 0.9569
vn -0.4714 0.0000 0.8819
vn -0.6344 0.0000 0.7730
vn -0.7730 0.0000 0.6344
vn -0.8819 0.0000 0.4714
vn -0.9569 0.0000 0.2903
vn -0.9952 0.0000 0.0980
vn -0.9952 0.0000 -0.0980
vn -0.9569 0.0000 -0.2903
vn -0.8819 0.0000 -0.4714
vn -0.7730 0.0000 -0.6344
vn -0.6344 0.0000 -0.7730
vn -0.4714 0.0000 -0.8819
vn 0.0000 1.0000 0.0000
vn -0.2903 0.0000 -0.9569
vn -0.0980 0.0000 -0.9952
vn 0.0000 -1.0000 0.0000
usemtl None
s off
f 74//1 2//1 4//1 75//1
f 75//2 4//2 6//2 85//2
f 85//3 6//3 8//3 95//3
f 95//4 8//4 10//4 105//4
f 105//5 10//5 12//5 115//5
f 115//6 12//6 14//6 125//6
f 125//7 14//7 16//7 135//7
f 135//8 16//8 18//8 145//8
f 145//9 18//9 20//9 155//9
f 155//10 20//10 22//10 165//10
f 165//11 22//11 24//11 175//11
f 175//12 24//12 26//12 185//12
f 185//13 26//13 28//13 195//13
f 195//14 28//14 30//14 205//14
f 205//15 30//15 32//15 215//15
f 215//16 32//16 34//16 225//16
f 225//17 34//17 36//17 235//17
f 235//18 36//18 38//18 245//18
f 245//19 38//19 40//19 255//19
f 255//20 40//20 42//20 265//20
f 265//21 42//21 44//21 275//21
f 275//22 44//22 46//22 285//22
f 285//23 46//23 48//23 295//23
f 295//24 48//24 50//24 305//24
f 305//25 50//25 52//25 315//25
f 315//26 52//26 54//26 325//26
f 325//27 54//27 56//27 335//27
f 335//28 56//28 58//28 345//28
f 345//29 58//29 60//29 355//29
f 355//30 60//30 62//30 365//30
f 4//31 2//31 64//31 62//31 60//31 58//31 56//31 54//31 52//31 50//31 48//31 46//31 44//31 42//31 40//31 38//31 36//31 34//31 32//31 30//31 28//31 26//31 24//31 22//31 20//31 18//31 16//31 14//31 12//31 10//31 8//31 6//31
f 365//32 62//32 64//32 375//32
f 375//33 64//33 2//33 74//33
f 1//34 3//34 5//34 7//34 9//34 11//34 13//34 15//34 17//34 19//34 21//34 23//34 25//34 27//34 29//34 31//34 33//34 35//34 37//34 39//34 41//34 43//34 45//34 47//34 49//34 51//34 53//34 55//34 57//34 59//34 61//34 63//34
f 63//33 384//33 65//33 1//33
f 384//33 383//33 66//33 65//33
f 383//33 382//33 67//33 66//33
f 382//33 381//33 68//33 67//33
f 381//33 380//33 69//33 68//33
f 380//33 379//33 70//33 69//33
f 379//33 378//33 71//33 70//33
f 378//33 377//33 72//33 71//33
f 377//33 376//33 73//33 72//33
f 376//33 375//33 74//33 73//33
f 61//32 374//32 384//32 63//32
f 374//32 373//32 383//32 384//32
f 373//32 372//32 382//32 383//32
f 372//32 371//32 381//32 382//32
f 371//32 370//32 380//32 381//32
f 370//32 369//32 379//32 380//32
f 369//32 368//32 378//32 379//32
f 368//32 367//32 377//32 378//32
f 367//32 366//32 376//32 377//32
f 366//32 365//32 375//32 376//32
f 59//30 364//30 374//30 61//30
f 364//30 363//30 373//30 374//30
f 363//30 362//30 372//30 373//30
f 362//30 361//30 371//30 372//30
f 361//30 360//30 370//30 371//30
f 360//30 359//30 369//30 370//30
f 359//30 358//30 368//30 369//30
f 358//30 357//30 367//30 368//30
f 357//30 356//30 366//30 367//30
f 356//30 355//30 365//30 366//30
f 57//29 354//29 364//29 59//29
f 354//29 353//29 363//29 364//29
f 353//29 352//29 362//29 363//29
f 352//29 351//29 361//29 362//29
f 351//29 350//29 360//29 361//29
f 350//29 349//29 359//29 360//29
f 349//29 348//29 358//29 359//29
f 348//29 347//29 357//29 358//29
f 347//29 346//29 356//29 357//29
f 346//29 345//29 355//29 356//29
f 55//28 344//28 354//28 57//28
f 344//28 343//28 353//28 354//28
f 343//28 342//28 352//28 353//28
f 342//28 341//28 351//28 352//28
f 341//28 340//28 350//28 351//28
f 340//28 339//28 349//28 350//28
f 339//28 338//28 348//28 349//28
f 338//28 337//28 347//28 348//28
f 337//28 336//28 346//28 347//28
f 336//28 335//28 345//28 346//28
f 53//27 334//27 344//27 55//27
f 334//27 333//27 343//27 344//27
f 333//27 332//27 342//27 343//27
f 332//27 331//27 341//27 342//27
f 331//27 330//27 340//27 341//27
f 330//27 329//27 339//27 340//27
f 329//27 328//27 338//27 339//27
f 328//27 327//27 337//27 338//27
f 327//27 326//27 336//27 337//27
f 326//27 325//27 335//27 336//27
f 51//26 324//26 334//26 53//26
f 324//26 323//26 333//26 334//26
f 323//26 322//26 332//26 333//26
f 322//26 321//26 331//26 332//26
f 321//26 320//26 330//26 331//26
f 320//26 319//26 329//26 330//26
f 319//26 318//26 328//26 329//26
f 318//26 317//26 327//26 328//26
f 317//26 316//26 326//26 327//26
f 316//26 315//26 325//26 326//26
f 49//25 314//25 324//25 51//25
f 314//25 313//25 323//25 324//25
f 313//25 312//25 322//25 323//25
f 312//25 311//25 321//25 322//25
f 311//25 310//25 320//25 321//25
f 310//25 309//25 319//25 320//25
f 309//25 308//25 318//25 319//25
f 308//25 307//25 317//25 318//25
f 307//25 306//25 316//25 317//25
f 306//25 305//25 315//25 316//25
f 47//24 304//24 314//24 49//24
f 304//24 303//24 313//24 314//24
f 303//24 302//24 312//24 313//24
f 302//24 301//24 311//24 312//24
f 301//24 300//24 310//24 311//24
f 300//24 299//24 309//24 310//24
f 299//24 298//24 308//24 309//24
f 298//24 297//24 307//24 308//24
f 297//24 296//24 306//24 307//24
f 296//24 295//24 305//24 306//24
f 45//23 294//23 304//23 47//23
f 294//23 293//23 303//23 304//23
f 293//23 292//23 302//23 303//23
f 292//23 291//23 301//23 302//23
f 291//23 290//23 300//23 301//23
f 290//23 289//23 299//23 300//23
f 289//23 288//23 298//23 299//23
f 288//23 287//23 297//23 298//23
f 287//23 286//23 296//23 297//23
f 286//23 285//23 295//23 296//23
f 43//22 284//22 294//22 45//22
f 284//22 283//22 293//22 294//22
f 283//22 282//22 292//22 293//22
f 282//22 281//22 291//22 292//22
f 281//22 280//22 290//22 291//22
f 280//22 279//22 289//22 290//22
f 279//22 278//22 288//22 289//22
f 278//22 277//22 287//22 288//22
f 277//22 276//22 286//22 287//22
f 276//22 275//22 285//22 286//22
f 41//21 274//21 284//21 43//21
f 274//21 273//21 283//21 284//21
f 273//21 272//21 282//21 283//21
f 272//21 271//21 281//21 282//21
f 271//21 270//21 280//21 281//21
f 270//21 269//21 279//21 280//21
f 269//21 268//21 278//21 279//21
f 268//21 267//21 277//21 278//21
f 267//21 266//21 276//21 277//21
f 266//21 265//21 275//21 276//21
f 39//20 264//20 274//20 41//20
f 264//20 263//20 273//20 274//20
f 263//20 262//20 272//20 273//20
f 262//20 261//20 271//20 272//20
f 261//20 260//20 270//20 271//20
f 260//20 259//20 269//20 270//20
f 259//20 258//20 268//20 269//20
f 258//20 257//20 267//20 268//20
f 257//20 256//20 266//20 267//20
f 256//20 255//20 265//20 266//20
f 37//19 254//19 264//19 39//19
f 254//19 253//19 263//19 264//19
f 253//19 252//19 262//19 263//19
f 252//19 251//19 261//19 262//19
f 251//19 250//19 260//19 261//19
f 250//19 249//19 259//19 260//19
f 249//19 248//19 258//19 259//19
f 248//19 247//19 257//19 258//19
f 247//19 246//19 256//19 257//19
f 246//19 245//19 255//19 256//19
f 35//18 244//18 254//18 37//18
f 244//18 243//18 253//18 254//18
f 243//18 242//18 252//18 253//18
f 242//18 241//18 251//18 252//18
f 241//18 240//18 250//18 251//18
f 240//18 239//18 249//18 250//18
f 239//18 238//18 248//18 249//18
f 238//18 237//18 247//18 248//18
f 237//18 236//18 246//18 247//18
f 236//18 235//18 245//18 246//18
f 33//17 234//17 244//17 35//17
f 234//17 233//17 243//17 244//17
f 233//17 232//17 242//17 243//17
f 232//17 231//17 241//17 242//17
f 231//17 230//17 240//17 241//17
f 230//17 229//17 239//17 240//17
f 229//17 228//17 238//17 239//17
f 228//17 227//17 237//17 238//17
f 227//17 226//17 236//17 237//17
f 226//17 225//17 235//17 236//17
f 31//16 224//16 234//16 33//16
f 224//16 223//16 233//16 234//16
f 223//16 222//16 232//16 233//16
f 222//16 221//16 231//16 232//16
f 221//16 220//16 230//16 231//16
f 220//16 219//16 229//16 230//16
f 219//16 218//16 228//16 229//16
f 218//16 217//16 227//16 228//16
f 217//16 216//16 226//16 227//16
f 216//16 215//16 225//16 226//16
f 29//15 214//15 224//15 31//15
f 214//15 213//15 223//15 224//15
f 213//15 212//15 222//15 223//15
f 212//15 211//15 221//15 222//15
f 211//15 210//15 220//15 221//15
f 210//15 209//15 219//15 220//15
f 209//15 208//15 218//15 219//15
f 208//15 207//15 217//15 218//15
f 207//15 206//15 216//15 217//15
f 206//15 205//15 215//15 216//15
f 27//14 204//14 214//14 29//14
f 204//14 203//14 213//14 214//14
f 203//14 202//14 212//14 213//14
f 202//14 201//14 211//14 212//14
f 201//14 200//14 210//14 211//14
f 200//14 199//14 209//14 210//14
f 199//14 198//14 208//14 209//14
f 198//14 197//14 207//14 208//14
f 197//14 196//14 206//14 207//14
f 196//14 195//14 205//14 206//14
f 25//13 194//13 204//13 27//13
f 194//13 193//13 203//13 204//13
f 193//13 192//13 202//13 203//13
f 192//13 191//13 201//13 202//13
f 191//13 190//13 200//13 201//13
f 190//13 189//13 199//13 200//13
f 189//13 188//13 198//13 199//13
f 188//13 187//13 197//13 198//13
f 187//13 186//13 196//13 197//13
f 186//13 185//13 195//13 196//13
f 23//12 184//12 194//12 25//12
f 184//12 183//12 193//12 194//12
f 183//12 182//12 192//12 193//12
f 182//12 181//12 191//12 192//12
f 181//12 180//12 190//12 191//12
f 180//12 179//12 189//12 190//12
f 179//12 178//12 188//12 189//12
f 178//12 177//12 187//12 188//12
f 177//12 176//12 186//12 187//12
f 176//12 175//12 185//12 186//12
f 21//11 174//11 184//11 23//11
f 174//11 173//11 183//11 184//11
f 173//11 172//11 182//11 183//11
f 172//11 171//11 181//11 182//11
f 171//11 170//11 180//11 181//11
f 170//11 169//11 179//11 180//11
f 169//11 168//11 178//11 179//11
f 168//11 167//11 177//11 178//11
f 167//11 166//11 176//11 177//11
f 166//11 165//11 175//11 176//11
f 19//10 164//10 174//10 21//10
f 164//10 163//10 173//10 174//10
f 163//10 162//10 172//10 173//10
f 162//10 161//10 171//10 172//10
f 161//10 160//10 170//10 171//10
f 160//10 159//10 169//10 170//10
f 159//10 158//10 168//10 169//10
f 158//10 157//10 167//10 168//10
f 157//10 156//10 166//10 167//10
f 156//10 155//10 165//10 166//10
f 17//9 154//9 164//9 19//9
f 154//9 153//9 163//9 164//9
f 153//9 152//9 162//9 163//9
f 152//9 151//9 161//9 162//9
f 151//9 150//9 160//9 161//9
f 150//9 149//9 159//9 160//9
f 149//9 148//9 158//9 159//9
f 148//9 147//9 157//9 158//9
f 147//9 146//9 156//9 157//9
f 146//9 145//9 155//9 156//9
f 15//8 144//8 154//8 17//8
f 144//8 143//8 153//8 154//8
f 143//8 142//8 152//8 153//8
f 142//8 141//8 151//8 152//8
f 141//8 140//8 150//8 151//8
f 140//8 139//8 149//8 150//8
f 139//8 138//8 148//8 149//8
f 138//8 137//8 147//8 148//8
f 137//8 136//8 146//8 147//8
f 136//8 135//8 145//8 146//8
f 13//7 134//7 144//7 15//7
f 134//7 133//7 143//7 144//7
f 133//7 132//7 142//7 143//7
f 132//7 131//7 141//7 142//7
f 131//7 130//7 140//7 141//7
f 130//7 129//7 139//7 140//7
f 129//7 128//7 138//7 139//7
f 128//7 127//7 137//7 138//7
f 127//7 126//7 136//7 137//7
f 126//7 125//7 135//7 136//7
f 11//6 124//6 134//6 13//6
f 124//6 123//6 133//6 134//6
f 123//6 122//6 132//6 133//6
f 122//6 121//6 131//6 132//6
f 121//6 120//6 130//6 131//6
f 120//6 119//6 129//6 130//6
f 119//6 118//6 128//6 129//6
f 118//6 117//6 127//6 128//6
f 117//6 116//6 126//6 127//6
f 116//6 115//6 125//6 126//6
f 9//5 114//5 124//5 11//5
f 114//5 113//5 123//5 124//5
f 113//5 112//5 122//5 123//5
f 112//5 111//5 121//5 122//5
f 111//5 110//5 120//5 121//5
f 110//5 109//5 119//5 120//5
f 109//5 108//5 118//5 119//5
f 108//5 107//5 117//5 118//5
f 107//5 106//5 116//5 117//5
f 106//5 105//5 115//5 116//5
f 7//4 104//4 114//4 9//4
f 104//4 103//4 113//4 114//4
f 103//4 102//4 112//4 113//4
f 102//4 101//4 111//4 112//4
f 101//4 100//4 110//4 111//4
f 100//4 99//4 109//4 110//4
f 99//4 98//4 108//4 109//4
f 98//4 97//4 107//4 108//4
f 97//4 96//4 106//4 107//4
f 96//4 95//4 105//4 106//4
f 5//3 94//3 104//3 7//3
f 94//3 93//3 103//3 104//3
f 93//3 92//3 102//3 103//3
f 92//3 91//3 101//3 102//3
f 91//3 90//3 100//3 101//3
f 90//3 89//3 99//3 100//3
f 89//3 88//3 98//3 99//3
f 88//3 87//3 97//3 98//3
f 87//3 86//3 96//3 97//3
f 86//3 85//3 95//3 96//3
f 3//2 84//2 94//2 5//2
f 84//2 83//2 93//2 94//2
f 83//2 82//2 92//2 93//2
f 82//2 81//2 91//2 92//2
f 81//2 80//2 90//2 91//2
f 80//2 79//2 89//2 90//2
f 79//2 78//2 88//2 89//2
f 78//2 77//2 87//2 88//2
f 77//2 76//2 86//2 87//2
f 76//2 75//2 85//2 86//2
f 1//1 65//1 84//1 3//1
f 65//1 66//1 83//1 84//1
f 66//1 67//1 82//1 83//1
f 67//1 68//1 81//1 82//1
f 68//1 69//1 80//1 81//1
f 69//1 70//1 79//1 80//1
f 70//1 71//1 78//1 79//1
f 71//1 72//1 77//1 78//1
f 72//1 73//1 76//1 77//1
f 73//1 74//1 75//1 76//1
